<svg xmlns="http://www.w3.org/2000/svg" width="200" height="200" viewBox="0 0 200 200" fill="none">
  <rect width="200" height="200" fill="#F3F4F6"/>
  <path d="M100 65C89.5066 65 81 73.5066 81 84C81 94.4934 89.5066 103 100 103C110.493 103 119 94.4934 119 84C119 73.5066 110.493 65 100 65ZM100 97C92.8203 97 87 91.1797 87 84C87 76.8203 92.8203 71 100 71C107.18 71 113 76.8203 113 84C113 91.1797 107.18 97 100 97Z" fill="#9CA3AF"/>
  <path d="M132.24 132.24C130.17 134.31 126.83 134.31 124.76 132.24L100 107.48L75.24 132.24C73.17 134.31 69.83 134.31 67.76 132.24C65.69 130.17 65.69 126.83 67.76 124.76L92.52 100L67.76 75.24C65.69 73.17 65.69 69.83 67.76 67.76C69.83 65.69 73.17 65.69 75.24 67.76L100 92.52L124.76 67.76C126.83 65.69 130.17 65.69 132.24 67.76C134.31 69.83 134.31 73.17 132.24 75.24L107.48 100L132.24 124.76C134.31 126.83 134.31 130.17 132.24 132.24Z" fill="#9CA3AF"/>
  <path d="M60 50H140C145.523 50 150 54.4772 150 60V140C150 145.523 145.523 150 140 150H60C54.4772 150 50 145.523 50 140V60C50 54.4772 54.4772 50 60 50ZM60 56C57.7909 56 56 57.7909 56 60V140C56 142.209 57.7909 144 60 144H140C142.209 144 144 142.209 144 140V60C144 57.7909 142.209 56 140 56H60Z" fill="#9CA3AF"/>
</svg>