<?xml version="1.0" standalone="no"?>
<!DOCTYPE svg PUBLIC "-//W3C//DTD SVG 20010904//EN"
 "http://www.w3.org/TR/2001/REC-SVG-20010904/DTD/svg10.dtd">
<svg version="1.0" xmlns="http://www.w3.org/2000/svg"
 width="1024.000000pt" height="1024.000000pt" viewBox="0 0 1024.000000 1024.000000"
 preserveAspectRatio="xMidYMid meet">

<g transform="translate(0.000000,1024.000000) scale(0.100000,-0.100000)"
fill="#000000" stroke="none">
<path d="M5063 9229 c-72 -12 -733 -289 -1603 -672 -206 -90 -451 -197 -545
-237 -93 -40 -179 -79 -191 -87 -56 -36 -54 17 -54 -1366 0 -1191 1 -1274 18
-1307 19 -39 -76 6 1042 -490 283 -125 692 -307 908 -404 217 -97 413 -181
435 -186 26 -5 58 -5 85 1 23 5 266 109 540 231 273 122 796 355 1162 517 602
268 667 299 687 330 l23 34 0 1279 c0 1381 2 1327 -52 1362 -13 8 -154 71
-313 140 -160 68 -481 207 -715 308 -1091 475 -1318 567 -1369 557 -3 -1 -29
-5 -58 -10z m297 -274 c223 -93 835 -356 1320 -567 195 -85 397 -172 448 -193
50 -22 92 -42 92 -45 0 -3 -161 -75 -358 -161 l-357 -155 -80 34 c-436 187
-1999 873 -2008 881 -4 4 117 61 270 126 356 151 398 167 448 162 22 -2 123
-39 225 -82z m-620 -565 c767 -333 1495 -653 1503 -659 4 -4 -55 -34 -131 -67
l-139 -61 -294 129 c-432 190 -930 408 -1392 608 -224 97 -409 179 -411 181
-3 2 59 31 136 65 l141 61 101 -45 c56 -24 274 -120 486 -212z m-716 -146
c209 -92 640 -280 956 -419 316 -139 609 -267 650 -285 41 -18 78 -35 83 -39
6 -6 -461 -223 -561 -260 -37 -13 -38 -13 -382 138 -190 84 -661 290 -1047
459 -387 169 -703 309 -703 312 0 4 15 11 33 18 17 6 149 63 292 126 143 63
268 115 279 115 10 1 190 -74 400 -165z m-339 -604 c138 -59 457 -199 710
-310 253 -111 497 -218 543 -238 l82 -35 0 -1174 c0 -937 -3 -1173 -12 -1166
-7 4 -490 220 -1073 479 l-1060 471 -3 1166 -2 1165 282 -125 c156 -68 396
-173 533 -233z m3683 -806 l-3 -1166 -415 -185 c-228 -101 -539 -238 -690
-305 -151 -66 -445 -197 -653 -289 -208 -93 -381 -169 -385 -169 -4 0 -9 524
-10 1165 l-3 1164 30 15 c16 9 165 76 330 150 l301 134 0 -273 0 -274 24 -28
c40 -47 72 -39 356 86 194 86 263 121 288 147 l32 34 0 303 0 304 393 176
c215 96 395 175 400 176 4 1 6 -524 5 -1165z m-988 513 l0 -214 -82 -36 c-46
-19 -118 -52 -160 -71 l-78 -35 0 217 0 217 153 67 c83 37 155 68 160 68 4 0
7 -96 7 -213z"/>
<path d="M5780 5890 c-191 -84 -303 -139 -317 -156 -23 -25 -23 -29 -23 -310
0 -271 1 -285 20 -304 11 -11 30 -20 43 -20 17 0 407 168 593 256 17 8 36 26
43 40 7 17 11 115 11 298 0 246 -2 276 -17 294 -10 11 -27 23 -38 26 -13 4
-125 -41 -315 -124z m338 98 c7 -7 12 -16 12 -22 0 -5 -6 -3 -12 6 -7 9 -24
19 -38 21 l-25 4 26 2 c14 0 30 -4 37 -11z m-148 -38 c-8 -5 -19 -10 -25 -10
-5 0 -3 5 5 10 8 5 20 10 25 10 6 0 3 -5 -5 -10z m-40 -15 c0 -5 -69 -35 -79
-34 -5 0 68 38 77 39 1 0 2 -2 2 -5z m-130 -60 c-14 -8 -29 -14 -35 -14 -5 0
1 6 15 14 14 8 30 14 35 14 6 0 -1 -6 -15 -14z m-100 -45 c-8 -5 -19 -10 -25
-10 -5 0 -3 5 5 10 8 5 20 10 25 10 6 0 3 -5 -5 -10z m-180 -73 c0 -2 -15 -13
-32 -26 l-33 -22 28 25 c26 24 37 31 37 23z m617 -39 c-3 -7 -5 -2 -5 12 0 14
2 19 5 13 2 -7 2 -19 0 -25z m-107 -378 c-8 -5 -19 -10 -25 -10 -5 0 -3 5 5
10 8 5 20 10 25 10 6 0 3 -5 -5 -10z m-90 -40 c-8 -5 -19 -10 -25 -10 -5 0 -3
5 5 10 8 5 20 10 25 10 6 0 3 -5 -5 -10z m-90 -40 c-8 -5 -19 -10 -25 -10 -5
0 -3 5 5 10 8 5 20 10 25 10 6 0 3 -5 -5 -10z m-180 -80 c-19 -11 -39 -19 -45
-19 -5 0 6 8 25 19 19 11 40 19 45 19 6 0 -6 -8 -25 -19z m-167 -61 c18 -1 18
-2 4 -6 -20 -5 -47 13 -47 31 0 6 5 3 11 -6 5 -10 20 -19 32 -19z"/>
<path d="M5692 3743 c-7 -3 -19 -18 -28 -35 -31 -59 13 -128 81 -128 37 0 85
46 85 81 0 25 -18 60 -39 76 -16 12 -75 16 -99 6z"/>
<path d="M1357 3303 c-80 -225 -148 -416 -152 -426 -7 -17 -2 -18 81 -15 l89
3 35 100 36 100 149 3 c112 2 150 -1 157 -10 4 -7 22 -55 39 -105 l31 -93 90
0 c68 0 89 3 86 13 -3 6 -72 198 -154 424 l-149 413 -96 0 -96 0 -146 -407z
m253 214 c0 -7 22 -82 49 -165 l49 -152 -108 0 -108 0 49 152 c27 83 49 158
49 165 0 7 5 13 10 13 6 0 10 -6 10 -13z"/>
<path d="M2914 3489 c-213 -61 -273 -392 -102 -556 57 -55 121 -78 218 -78
133 0 203 44 258 163 13 29 22 55 21 56 -2 2 -38 6 -79 9 l-75 6 -15 -31 c-49
-103 -197 -94 -246 14 -27 60 -26 159 3 218 28 57 66 80 131 80 55 0 96 -28
108 -74 7 -29 13 -30 111 -20 60 7 61 7 53 33 -21 74 -76 137 -150 170 -49 22
-176 28 -236 10z"/>
<path d="M4337 3486 c-39 -14 -69 -36 -99 -71 -17 -19 -18 -19 -18 28 l0 47
-75 0 -75 0 0 -315 0 -316 81 3 81 3 -1 195 c0 129 4 207 12 229 34 97 184
108 223 16 11 -26 14 -85 14 -240 l0 -205 81 0 81 0 -4 243 c-3 227 -4 245
-25 283 -52 98 -166 139 -276 100z"/>
<path d="M4905 3476 c-57 -26 -127 -97 -150 -152 -41 -98 -27 -259 29 -343
120 -177 427 -167 526 19 7 12 8 26 3 30 -4 4 -41 10 -80 13 -65 5 -74 4 -83
-13 -26 -48 -134 -66 -192 -32 -34 19 -68 78 -68 117 l0 25 215 0 215 0 0 58
c0 98 -24 157 -88 222 -66 64 -106 80 -208 80 -51 0 -82 -6 -119 -24z m210
-128 c24 -23 38 -45 42 -71 l6 -38 -137 2 c-75 0 -136 5 -136 9 0 20 23 67 43
89 29 30 52 40 105 40 34 1 49 -5 77 -31z"/>
<path d="M6182 3479 c-24 -12 -55 -38 -69 -58 l-25 -36 6 53 7 52 -76 0 -75 0
0 -315 0 -315 79 0 80 0 3 225 3 225 28 27 c37 38 114 40 149 5 22 -22 23 -28
26 -252 l3 -230 80 0 79 0 0 209 c0 115 4 221 10 235 25 66 127 84 179 32 l26
-26 3 -225 3 -225 80 0 79 0 0 228 c0 125 -5 243 -10 263 -24 87 -83 137 -172
146 -79 8 -136 -11 -185 -62 l-42 -44 -19 33 c-42 70 -164 97 -250 55z"/>
<path d="M7138 3490 c-42 -13 -91 -46 -114 -77 -22 -30 -49 -92 -43 -97 2 -2
36 -6 74 -9 69 -5 71 -5 87 23 9 16 31 33 53 40 71 23 138 -10 151 -77 7 -36
13 -33 -153 -58 -120 -17 -176 -38 -203 -72 -45 -58 -48 -163 -6 -225 63 -95
232 -111 325 -32 l41 36 0 -41 0 -41 75 0 75 0 0 228 c0 129 -5 243 -11 265
-15 54 -71 112 -126 131 -49 17 -178 20 -225 6z m212 -370 c0 -97 -48 -144
-148 -145 -55 0 -66 3 -83 24 -26 32 -24 73 5 100 19 18 117 45 219 60 4 1 7
-17 7 -39z"/>
<path d="M7750 3473 c-97 -49 -143 -142 -143 -288 -1 -188 97 -308 253 -309
77 -1 139 28 172 82 11 18 22 31 24 29 10 -10 -16 -157 -32 -182 -46 -70 -190
-72 -238 -3 -13 18 -21 19 -83 13 -91 -10 -96 -13 -77 -50 23 -45 54 -74 104
-100 58 -29 89 -36 182 -37 129 -1 223 46 271 135 21 41 22 53 25 385 l3 342
-81 0 -81 0 6 -55 c8 -61 -1 -70 -26 -26 -9 15 -33 41 -54 57 -31 23 -50 29
-104 32 -57 3 -74 -1 -121 -25z m246 -146 c57 -62 68 -158 29 -241 -26 -54
-68 -78 -128 -73 -84 7 -127 69 -127 185 0 66 18 110 61 146 29 25 39 28 83
23 41 -4 55 -11 82 -40z"/>
<path d="M8484 3481 c-58 -27 -111 -77 -142 -135 -25 -47 -27 -60 -26 -166 0
-132 11 -166 75 -235 55 -60 125 -88 219 -89 128 0 227 49 271 136 11 22 19
41 17 43 -2 1 -38 5 -80 8 -70 6 -78 5 -88 -13 -16 -30 -63 -50 -117 -50 -80
0 -135 48 -144 125 l-4 30 219 3 219 2 -5 73 c-8 126 -64 216 -163 263 -65 31
-189 33 -251 5z m201 -123 c15 -12 34 -36 41 -54 27 -65 28 -64 -121 -64 -131
0 -135 1 -135 21 0 31 37 87 68 104 42 22 114 19 147 -7z"/>
<path d="M2052 3258 c4 -249 10 -282 61 -337 77 -84 246 -80 319 8 l27 31 3
-47 3 -48 78 -3 77 -3 0 316 0 315 -79 0 -80 0 -3 -211 -3 -211 -37 -34 c-33
-29 -45 -34 -89 -34 -43 0 -55 5 -80 29 l-29 29 0 216 0 216 -86 0 -86 0 4
-232z"/>
<path d="M3392 3253 c3 -226 4 -240 27 -286 33 -68 85 -100 168 -105 80 -5
140 16 183 64 l30 35 0 -51 0 -50 80 0 80 0 0 315 0 315 -82 0 -83 0 3 -157
c4 -205 -2 -256 -36 -294 -50 -56 -143 -54 -186 4 -20 27 -21 41 -21 238 l0
209 -84 0 -83 0 4 -237z"/>
<path d="M5662 3178 l3 -313 78 -3 77 -3 0 316 0 315 -80 0 -80 0 2 -312z"/>
<path d="M2949 2391 c-20 -20 -29 -39 -29 -61 0 -39 47 -90 83 -90 14 0 39 12
56 26 63 53 25 154 -59 154 -12 0 -35 -13 -51 -29z"/>
<path d="M5951 2394 c-24 -20 -31 -34 -31 -63 0 -78 96 -116 146 -57 33 38 31
80 -5 117 -36 36 -70 37 -110 3z"/>
<path d="M2640 2221 l0 -158 -43 42 c-68 69 -165 82 -255 36 -89 -46 -133
-129 -140 -266 -8 -163 39 -267 148 -324 100 -53 228 -24 281 63 l19 31 0 -57
0 -58 75 0 75 0 0 425 0 425 -80 0 -80 0 0 -159z m-53 -222 c37 -35 53 -80 53
-153 0 -126 -46 -186 -140 -186 -45 0 -56 4 -85 33 -85 85 -67 286 30 328 36
16 113 4 142 -22z"/>
<path d="M6220 1955 l0 -425 75 0 75 0 0 46 0 47 43 -40 c101 -93 265 -75 348
40 46 63 62 133 57 246 -5 106 -27 173 -76 224 -88 93 -241 101 -324 17 l-38
-38 0 154 0 154 -80 0 -80 0 0 -425z m376 58 c40 -26 59 -81 58 -168 0 -89
-15 -129 -61 -165 -23 -18 -37 -21 -82 -18 -47 4 -59 10 -87 40 -88 97 -51
294 62 328 34 10 80 3 110 -17z"/>
<path d="M6925 1955 l0 -425 83 0 82 0 0 425 0 425 -82 0 -83 0 0 -425z"/>
<path d="M3367 2156 c-57 -16 -113 -58 -139 -106 -15 -27 -18 -50 -16 -97 6
-99 53 -135 218 -168 118 -24 140 -37 140 -83 0 -32 -54 -62 -110 -61 -68 1
-93 12 -115 47 -19 30 -22 31 -94 32 l-73 0 6 -32 c11 -57 51 -104 111 -133
142 -70 358 -27 409 80 11 22 18 62 19 97 1 101 -39 133 -208 168 -130 27
-133 28 -151 55 -12 18 -12 28 -3 48 14 32 48 47 105 47 36 0 51 -6 73 -28 15
-15 30 -33 32 -41 7 -20 139 -6 139 15 0 21 -35 86 -56 105 -65 57 -193 82
-287 55z"/>
<path d="M4115 2161 c-47 -12 -91 -38 -114 -68 l-20 -28 -1 48 0 47 -75 0 -75
0 0 -435 0 -435 80 0 80 0 0 163 0 164 39 -37 c95 -91 260 -70 342 42 41 57
59 127 59 228 0 123 -20 181 -83 245 -68 67 -141 88 -232 66z m87 -144 c55
-34 84 -159 58 -251 -30 -107 -150 -145 -224 -71 -62 62 -71 184 -21 270 21
37 42 54 85 69 20 7 78 -3 102 -17z"/>
<path d="M4710 2153 c-67 -25 -154 -116 -174 -183 -39 -131 -10 -286 66 -362
62 -62 117 -83 218 -83 104 0 170 26 229 90 62 68 74 104 75 225 1 89 -2 113
-22 156 -27 60 -79 113 -141 145 -58 30 -185 36 -251 12z m190 -141 c86 -63
95 -245 15 -322 -62 -60 -161 -47 -206 27 -27 43 -37 153 -20 206 34 103 134
145 211 89z"/>
<path d="M5531 2159 c-47 -9 -118 -51 -128 -74 -11 -30 -23 -14 -23 30 l0 45
-75 0 -75 0 0 -315 0 -315 84 0 85 0 3 221 3 221 33 29 c58 52 168 34 191 -32
7 -19 11 -112 11 -235 l0 -204 80 0 80 0 0 228 c0 129 -5 243 -11 265 -28 101
-139 159 -258 136z"/>
<path d="M7394 2159 c-98 -28 -187 -134 -200 -236 -28 -230 70 -379 264 -399
121 -13 237 36 292 123 17 26 27 50 23 54 -5 4 -40 10 -80 13 -66 7 -73 5 -83
-13 -31 -59 -164 -69 -219 -17 -28 26 -56 100 -45 118 3 4 100 8 216 8 l211 0
-5 83 c-3 67 -10 92 -34 136 -33 62 -98 115 -161 130 -50 13 -135 13 -179 0z
m157 -125 c28 -14 68 -79 69 -111 0 -10 -34 -13 -135 -13 -151 0 -153 1 -117
69 34 63 119 89 183 55z"/>
<path d="M2930 1845 l0 -315 78 0 77 0 0 315 0 315 -77 0 -78 0 0 -315z"/>
<path d="M5930 1845 l0 -315 75 0 75 0 0 315 0 315 -75 0 -75 0 0 -315z"/>
</g>
</svg>
