<?xml version="1.0" standalone="no"?>
<!DOCTYPE svg PUBLIC "-//W3C//DTD SVG 20010904//EN"
 "http://www.w3.org/TR/2001/REC-SVG-20010904/DTD/svg10.dtd">
<svg version="1.0" xmlns="http://www.w3.org/2000/svg"
 width="200.000000pt" height="200.000000pt" viewBox="0 0 200.000000 200.000000"
 preserveAspectRatio="xMidYMid meet">

<g transform="translate(0.000000,200.000000) scale(0.100000,-0.100000)"
fill="#000000" stroke="none">
<path d="M365 1736 c-40 -17 -84 -63 -101 -103 -21 -48 -20 -1219 0 -1266 18
-41 72 -91 115 -106 24 -8 210 -11 625 -11 553 0 594 2 631 19 48 22 79 54
100 103 13 32 15 117 15 626 0 413 -3 599 -11 623 -15 43 -65 97 -106 115 -46
20 -1223 20 -1268 0z m1240 -126 c13 -14 15 -70 13 -460 l-3 -443 -118 102
c-130 111 -155 127 -214 137 -67 10 -120 -11 -188 -77 -96 -92 -99 -91 -270
82 -77 77 -157 149 -177 160 -44 22 -115 25 -162 5 -19 -8 -52 -31 -75 -51
l-41 -37 0 265 c0 150 4 277 10 292 5 14 20 30 32 35 13 5 266 8 600 7 506 -2
579 -4 593 -17z"/>
<path d="M1264 1426 c-93 -42 -100 -176 -12 -222 104 -54 223 55 173 159 -30
63 -100 91 -161 63z"/>
</g>
</svg>
